<svg xmlns="http://www.w3.org/2000/svg" viewBox="0 0 640 640" fill="none">
  <path d="M100 80h146v58H158v338h-58V80Z" fill="#ff3a25"/>
  <path d="M460 152h58v266h88v58H460V152Z" fill="#ff3a25"/>
  <g fill-rule="evenodd" clip-rule="evenodd">
    <path d="M355 173c81 0 140 58 140 147 0 89-59 147-140 147-81 0-140-58-140-147 0-89 59-147 140-147Z" fill="#050505"/>
    <path d="M329 229c-34 0-57 31-57 91 0 60 23 91 57 91 15 0 29-6 40-17l-83-165ZM380 241l83 164c13-17 21-41 21-85 0-60-23-91-57-91-15 0-29 5-40 12Z" fill="#fff"/>
    <path d="m324 198 106 207-42 22-106-207 42-22Z" fill="#050505"/>
  </g>
</svg>
